# xmcd CD database file
#
# Track frame offsets:
#	150
#	19960
#	50570
#	64189
#	78377
#	86732
#	107415
#	125839
#	133987
#	149355
#	169687
#	187475
#	205620
#	222030
#	241797
#	276207
#
# Disc length: 4026 seconds
#
# Revision: 0
# Processed by: cddbd v1.5PL3 Copyright (c) Steve Scherf et al.
# Submitted via: CDex 1.51
#
DISCID=f30fb810
DTITLE=Lutz Berger - Ich tu was für mich - Mein Körper und ich
DYEAR=1900
DGENRE=New Age
TTITLE0=Willkommen zu Hause
TTITLE1=Kleine und kleinste Signale
TTITLE2=Die Rhythmen des Körpers
TTITLE3=Ausgleich and Geborgenheit
TTITLE4=Ein liebevoller Blick nach innen
TTITLE5=Toning
TTITLE6=Gehen, nicht bummeln
TTITLE7=Wolfgangs kleine Nachtmusik
TTITLE8=Der Strandkorb
TTITLE9=Die Kunst der kleinen Pause
TTITLE10=Atmen
TTITLE11=Die Rückenwanderung
TTITLE12=Hotel Körper
TTITLE13=Unsere Körperrhythmen
TTITLE14=Die Einladung...
TTITLE15=Heartbeat - Herzschlag
EXTD=
EXTT0=
EXTT1=
EXTT2=
EXTT3=
EXTT4=
EXTT5=
EXTT6=
EXTT7=
EXTT8=
EXTT9=
EXTT10=
EXTT11=
EXTT12=
EXTT13=
EXTT14=
EXTT15=
PLAYORDER=
